# xmcd
#
# Track frame offsets:
#	150
#	12243
#	22589
#	36153
#	56589
#	75922
#	90835
#	105699
#	122110
#	137357
#
# Disc length: 2040 seconds
# Revision: 0
# Processed by: cddbd v1.5.2PL0 Copyright (c) Steve Scherf et al.
# Submitted via: dBpowerAMP V12.0
#
DISCID=6307f60a
DTITLE=Electric Cowboys - Prisoner of the Honky Tonk
DYEAR=2005
DGENRE=Country
TTITLE0=Prisoner
TTITLE1=On the Road Again
TTITLE2=Throwin' Old Memories
TTITLE3=Paradise, Texas
TTITLE4=Because I Love You (Por Que Te Quiero)
TTITLE5=Pressure
TTITLE6=Wasted Days and Wasted Nights
TTITLE7=Folsom Prison
TTITLE8=Ain't No Place Like Texas
TTITLE9=I Love You But I Won't
EXTD=
EXTT0=
EXTT1=
EXTT2=
EXTT3=
EXTT4=
EXTT5=
EXTT6=
EXTT7=
EXTT8=
EXTT9=
PLAYORDER=
